<?xml version="1.0" encoding="utf-8"?><svg viewBox="0 0 800 800" xmlns="http://www.w3.org/2000/svg" xmlns:xlink="http://www.w3.org/1999/xlink"><style>:root>svg{display:none}:root>svg:target{display:block}</style><svg fill="none" viewBox="0 0 25 24" id="arrow" xmlns="http://www.w3.org/2000/svg"><g clip-path="url(#aaclip0_1_19728)"><path d="M5.5 12h14M15.5 16l4-4M15.5 8l4 4"/></g><defs><clipPath id="aaclip0_1_19728"><path fill="#fff" transform="translate(.5)" d="M0 0h24v24H0z"/></clipPath></defs></svg><svg fill="none" viewBox="0 0 24 24" id="arrow2" xmlns="http://www.w3.org/2000/svg"><g clip-path="url(#abclip0_1_32053)"><path d="M18 9l-6 6-6-6" stroke="#212121" stroke-width="2" stroke-linecap="round" stroke-linejoin="round"/></g><defs><clipPath id="abclip0_1_32053"><path fill="#fff" transform="rotate(90 12 12)" d="M0 0h24v24H0z"/></clipPath></defs></svg><svg fill="none" viewBox="0 0 24 24" id="arrow2-str" xmlns="http://www.w3.org/2000/svg"><g clip-path="url(#acclip0_1_32053)"><path d="M18 9l-6 6-6-6"/></g><defs><clipPath id="acclip0_1_32053"><path fill="#fff" transform="rotate(90 12 12)" d="M0 0h24v24H0z"/></clipPath></defs></svg><svg viewBox="0 0 25 25" id="attention" xmlns="http://www.w3.org/2000/svg"><g fill-rule="evenodd" clip-rule="evenodd"><path d="M8.673 3.261a10 10 0 117.654 18.478A10 10 0 018.673 3.261zM12.5 4.5a8 8 0 100 16 8 8 0 000-16z"/><path d="M12.5 8.5a1 1 0 011 1v4a1 1 0 11-2 0v-4a1 1 0 011-1zM12.5 15.5a1 1 0 011 1v.01a1 1 0 11-2 0v-.01a1 1 0 011-1z"/></g></svg><svg fill="none" viewBox="0 0 24 24" id="brands" xmlns="http://www.w3.org/2000/svg"><g clip-path="url(#aeclip0_3340_200141)" stroke="#000" stroke-width="2" stroke-linecap="round" stroke-linejoin="round"><path d="M6.5 7.5a1 1 0 102 0 1 1 0 00-2 0z"/><path d="M3 6v5.172a2 2 0 00.586 1.414l7.71 7.71a2.41 2.41 0 003.408 0l5.592-5.592a2.41 2.41 0 000-3.408l-7.71-7.71A2 2 0 0011.172 3H6a3 3 0 00-3 3z"/></g><defs><clipPath id="aeclip0_3340_200141"><path fill="#fff" d="M0 0h24v24H0z"/></clipPath></defs></svg><svg fill="none" viewBox="0 0 24 24" id="category" xmlns="http://www.w3.org/2000/svg"><g clip-path="url(#afclip0_5001_33480)" stroke="#000" stroke-width="2" stroke-linecap="round" stroke-linejoin="round"><path d="M4 4h6v6H4V4zM14 4h6v6h-6V4zM4 14h6v6H4v-6zM14 17a3 3 0 106 0 3 3 0 00-6 0z"/></g><defs><clipPath id="afclip0_5001_33480"><path fill="#fff" d="M0 0h24v24H0z"/></clipPath></defs></svg><svg viewBox="0 0 24 24" fill="none" id="check" xmlns="http://www.w3.org/2000/svg"><path d="M4 12.611L8.923 17.5 20 6.5" stroke="#000" stroke-width="2" stroke-linecap="round" stroke-linejoin="round"/></svg><svg fill="none" viewBox="0 0 20 20" id="checkbox" xmlns="http://www.w3.org/2000/svg"><path d="M16.333 0c1.96 0 3.56 1.537 3.662 3.472l.005.195v12.666c0 1.96-1.537 3.56-3.472 3.662l-.195.005H3.667a3.667 3.667 0 01-3.662-3.472L0 16.333V3.667C0 1.707 1.537.107 3.472.005L3.667 0h12.666zm-2.626 7.293a1 1 0 00-1.414 0L9 10.585 7.707 9.293l-.094-.083a1 1 0 00-1.32 1.497l2 2 .094.083a1 1 0 001.32-.083l4-4 .083-.094a1 1 0 00-.083-1.32z" fill="#1890FF"/></svg><svg viewBox="0 0 126 126" fill="none" id="circle" xmlns="http://www.w3.org/2000/svg"><path clip-rule="evenodd" d="M3 63C3 29.863 29.863 3 63 3s60 26.863 60 60-26.863 60-60 60S3 96.137 3 63z"/></svg><svg viewBox="0 0 24 24" id="close" xmlns="http://www.w3.org/2000/svg"><path fill-rule="evenodd" clip-rule="evenodd" d="M19.207 6.207a1 1 0 00-1.414-1.414L12 10.586 6.207 4.793a1 1 0 00-1.414 1.414L10.586 12l-5.793 5.793a1 1 0 101.414 1.414L12 13.414l5.793 5.793a1 1 0 001.414-1.414L13.414 12l5.793-5.793z"/></svg><svg fill="none" viewBox="0 0 24 24" id="color" xmlns="http://www.w3.org/2000/svg"><g clip-path="url(#akclip0_5001_35450)" stroke="#000" stroke-width="2" stroke-linecap="round" stroke-linejoin="round"><path d="M12 21a9 9 0 110-18c4.97 0 9 3.582 9 8 0 1.06-.474 2.078-1.318 2.828-.844.75-1.989 1.172-3.182 1.172H14a2 2 0 00-1 3.75A1.3 1.3 0 0112 21z"/><path d="M7.5 10.5a1 1 0 102 0 1 1 0 00-2 0zM11.5 7.5a1 1 0 102 0 1 1 0 00-2 0zM15.5 10.5a1 1 0 102 0 1 1 0 00-2 0z"/></g><defs><clipPath id="akclip0_5001_35450"><path fill="#fff" d="M0 0h24v24H0z"/></clipPath></defs></svg><svg fill="none" viewBox="0 0 24 24" id="dollar" xmlns="http://www.w3.org/2000/svg"><g clip-path="url(#alclip0_1_32065)"><path d="M16.7 8A3 3 0 0014 6h-4a3 3 0 100 6h4a3 3 0 010 6h-4a3 3 0 01-2.7-2M12 3v3m0 12v3"/></g><defs><clipPath id="alclip0_1_32065"><path fill="#fff" d="M0 0h24v24H0z"/></clipPath></defs></svg><svg viewBox="0 0 24 24" fill="none" id="done" xmlns="http://www.w3.org/2000/svg"><path d="M4 12.611L8.923 17.5 20 6.5"/></svg><svg fill="none" viewBox="0 0 16 16" id="eye" xmlns="http://www.w3.org/2000/svg"><g clip-path="url(#anclip0_3022_88670)" stroke="#000" stroke-width="1.333" stroke-linecap="round" stroke-linejoin="round"><path d="M6.666 8a1.333 1.333 0 102.667 0 1.333 1.333 0 00-2.667 0z"/><path d="M14 8c-1.6 2.667-3.6 4-6 4s-4.4-1.333-6-4c1.6-2.667 3.6-4 6-4s4.4 1.333 6 4z"/></g><defs><clipPath id="anclip0_3022_88670"><path fill="#fff" d="M0 0h16v16H0z"/></clipPath></defs></svg><svg fill="none" viewBox="0 0 24 24" id="facebook" xmlns="http://www.w3.org/2000/svg"><g clip-path="url(#aoclip0_1165_31554)"><path d="M7 10v4h3v7h4v-7h3l1-4h-4V8a1 1 0 011-1h3V3h-3a5 5 0 00-5 5v2H7z"/></g><defs><clipPath id="aoclip0_1165_31554"><path fill="#fff" d="M0 0h24v24H0z"/></clipPath></defs></svg><svg fill="none" viewBox="0 0 24 24" id="facebook2" xmlns="http://www.w3.org/2000/svg"><g clip-path="url(#apclip0_5001_49137)"><path d="M7 10v4h3v7h4v-7h3l1-4h-4V8a1 1 0 011-1h3V3h-3a5 5 0 00-5 5v2H7z"/></g><defs><clipPath id="apclip0_5001_49137"><path fill="#fff" d="M0 0h24v24H0z"/></clipPath></defs></svg><svg fill="none" viewBox="0 0 24 24" id="filter" xmlns="http://www.w3.org/2000/svg"><g clip-path="url(#aqclip0_529_10556)"><path d="M4 4h16v2.172a2 2 0 01-.586 1.414L15 12v7l-6 2v-8.5L4.52 7.572A2 2 0 014 6.227V4z" stroke="#000" stroke-width="2" stroke-linecap="round" stroke-linejoin="round"/></g><defs><clipPath id="aqclip0_529_10556"><path fill="#fff" d="M0 0h24v24H0z"/></clipPath></defs></svg><svg fill="none" viewBox="0 0 25 24" id="folder" xmlns="http://www.w3.org/2000/svg"><g clip-path="url(#arclip0_5001_48848)" stroke="#212121" stroke-width="2" stroke-linecap="round" stroke-linejoin="round"><path d="M4.5 6a2 2 0 012-2h12a2 2 0 012 2v12a2 2 0 01-2 2h-12a2 2 0 01-2-2V6zM9.5 4v16"/></g><defs><clipPath id="arclip0_5001_48848"><path fill="#fff" transform="translate(.5)" d="M0 0h24v24H0z"/></clipPath></defs></svg><svg viewBox="0 0 16 16" id="heart" xmlns="http://www.w3.org/2000/svg"><path fill-rule="evenodd" clip-rule="evenodd" d="M5.607 3.34a2.667 2.667 0 00-2.143 4.563l.005.004 4.53 4.488 4.531-4.488a.66.66 0 01.043-.038A2.67 2.67 0 0012.421 4a2.667 2.667 0 00-3.889.403.667.667 0 01-1.068-.003 2.667 2.667 0 00-1.857-1.06zm7.816 5.56l-4.954 4.907a.667.667 0 01-.939 0l-4.998-4.95a4 4 0 015.47-5.836 4 4 0 015.465 5.84.67.67 0 01-.044.04z"/></svg><svg fill="none" viewBox="0 0 24 24" id="home" xmlns="http://www.w3.org/2000/svg"><g clip-path="url(#atclip0_1165_31576)"><path d="M5 12H3l9-9 9 9h-2M5 12v7a2 2 0 002 2h10a2 2 0 002-2v-7"/><path d="M9 21v-6a2 2 0 012-2h2a2 2 0 012 2v6"/></g><defs><clipPath id="atclip0_1165_31576"><path fill="#fff" d="M0 0h24v24H0z"/></clipPath></defs></svg><svg viewBox="0 0 16 17" id="image" xmlns="http://www.w3.org/2000/svg"><g fill-rule="evenodd" clip-rule="evenodd"><path d="M9.332 5.835c0-.369.299-.667.667-.667h.006a.667.667 0 010 1.333H10a.667.667 0 01-.667-.666z"/><path d="M3.999 3.165A1.333 1.333 0 002.665 4.5v8A1.333 1.333 0 004 13.832h4.333a.667.667 0 010 1.333H3.999A2.667 2.667 0 011.332 12.5v-8a2.667 2.667 0 012.667-2.667h8a2.667 2.667 0 012.666 2.667v4.333a.667.667 0 01-1.333 0V4.499a1.333 1.333 0 00-1.333-1.334h-8z"/><path d="M5.798 8.308L2.47 11.637a.667.667 0 01-.943-.943L4.861 7.36l.009-.01c.41-.393.914-.632 1.462-.632.549 0 1.053.239 1.462.633l.01.009 2.666 2.666a.667.667 0 11-.943.943L6.866 8.308c-.208-.198-.393-.256-.534-.256-.141 0-.326.058-.534.256z"/><path d="M10.468 9.643c.29-.276.54-.295.747-.215a.667.667 0 00.482-1.243c-.768-.298-1.556-.077-2.158.501l-.01.01-.666.666a.667.667 0 00.943.943l.662-.662zM10 13.167c0-.368.299-.667.667-.667h4a.667.667 0 010 1.333h-4a.667.667 0 01-.667-.666z"/><path d="M12.667 10.5c.368 0 .666.299.666.667v4a.667.667 0 11-1.333 0v-4c0-.368.299-.667.667-.667z"/></g></svg><svg fill="none" viewBox="0 0 24 24" id="instagram" xmlns="http://www.w3.org/2000/svg"><g clip-path="url(#avclip0_5001_49149)"><path d="M4 8a4 4 0 014-4h8a4 4 0 014 4v8a4 4 0 01-4 4H8a4 4 0 01-4-4V8z"/><path d="M9 12a3 3 0 106 0 3 3 0 00-6 0zM16.5 7.5v.01"/></g><defs><clipPath id="avclip0_5001_49149"><path fill="#fff" d="M0 0h24v24H0z"/></clipPath></defs></svg><svg fill="none" viewBox="0 0 24 24" id="linkedin" xmlns="http://www.w3.org/2000/svg"><g clip-path="url(#awclip0_1165_31564)"><path d="M4 6a2 2 0 012-2h12a2 2 0 012 2v12a2 2 0 01-2 2H6a2 2 0 01-2-2V6zM8 11v5M8 8v.01M12 16v-5"/><path d="M16 16v-3a2 2 0 00-4 0"/></g><defs><clipPath id="awclip0_1165_31564"><path fill="#fff" d="M0 0h24v24H0z"/></clipPath></defs></svg><svg fill="none" viewBox="0 0 24 24" id="load" xmlns="http://www.w3.org/2000/svg"><g clip-path="url(#axclip0_38_14197)"><path d="M19.932 13.04a8 8 0 11-9.925-8.788c3.9-1 7.935 1.007 9.425 4.747"/><path d="M20 4v5h-5"/></g><defs><clipPath id="axclip0_38_14197"><path fill="#fff" d="M0 0h24v24H0z"/></clipPath></defs></svg><svg viewBox="0 0 20 20" id="menu" xmlns="http://www.w3.org/2000/svg"><path fill-rule="evenodd" d="M19 4a1 1 0 01-1 1H2a1 1 0 010-2h16a1 1 0 011 1zm0 6a1 1 0 01-1 1H2a1 1 0 110-2h16a1 1 0 011 1zm-1 7a1 1 0 100-2H2a1 1 0 100 2h16z"/></svg><svg fill="none" viewBox="0 0 24 24" id="mode1" xmlns="http://www.w3.org/2000/svg"><g clip-path="url(#azclip0_680_24974)"><path d="M8 8h8v8H8V8z"/><path d="M19.5 3c.663 0 1.299.21 1.768.586C21.737 3.96 22 4.47 22 5v14c0 .53-.263 1.04-.732 1.414-.47.375-1.105.586-1.768.586h-15c-.663 0-1.299-.21-1.768-.586C2.263 20.04 2 19.53 2 19V5c0-.53.263-1.04.732-1.414C3.202 3.21 3.837 3 4.5 3h15z"/></g><defs><clipPath id="azclip0_680_24974"><path fill="#fff" d="M0 0h24v24H0z"/></clipPath></defs></svg><svg fill="none" viewBox="0 0 25 24" id="mode2" xmlns="http://www.w3.org/2000/svg"><g clip-path="url(#baclip0_38_7937)"><path d="M20 3c.663 0 1.299.21 1.768.586.469.375.732.884.732 1.414v14c0 .53-.263 1.04-.732 1.414-.47.375-1.105.586-1.768.586H5c-.663 0-1.299-.21-1.768-.586C2.763 20.04 2.5 19.53 2.5 19V5c0-.53.263-1.04.732-1.414C3.702 3.21 4.337 3 5 3h15zM14.5 7v10M10.5 7v10"/></g><defs><clipPath id="baclip0_38_7937"><path fill="#fff" transform="translate(.5)" d="M0 0h24v24H0z"/></clipPath></defs></svg><svg fill="none" viewBox="0 0 24 24" id="mode3" xmlns="http://www.w3.org/2000/svg"><g clip-path="url(#bbclip0_38_29611)"><path d="M19.5 3c.663 0 1.299.21 1.768.586C21.737 3.96 22 4.47 22 5v14c0 .53-.263 1.04-.732 1.414-.47.375-1.105.586-1.768.586h-15c-.663 0-1.299-.21-1.768-.586C2.263 20.04 2 19.53 2 19V5c0-.53.263-1.04.732-1.414C3.202 3.21 3.837 3 4.5 3h15zM16 7v10M12 7v10M8 7v10"/></g><defs><clipPath id="bbclip0_38_29611"><path fill="#fff" d="M0 0h24v24H0z"/></clipPath></defs></svg><svg fill="none" viewBox="0 0 24 24" id="mode4" xmlns="http://www.w3.org/2000/svg"><g clip-path="url(#bcclip0_38_29618)"><path d="M19.5 3c.663 0 1.299.21 1.768.586C21.737 3.96 22 4.47 22 5v14c0 .53-.263 1.04-.732 1.414-.47.375-1.105.586-1.768.586h-15c-.663 0-1.299-.21-1.768-.586C2.263 20.04 2 19.53 2 19V5c0-.53.263-1.04.732-1.414C3.202 3.21 3.837 3 4.5 3h15zM14 7v10M18 7v10M10 7v10M6 7v10"/></g><defs><clipPath id="bcclip0_38_29618"><path fill="#fff" d="M0 0h24v24H0z"/></clipPath></defs></svg><svg fill="none" viewBox="0 0 25 24" id="mode5" xmlns="http://www.w3.org/2000/svg"><g clip-path="url(#bdclip0_5001_27395)"><path d="M20 3c.663 0 1.299.21 1.768.586.469.375.732.884.732 1.414v14c0 .53-.263 1.04-.732 1.414-.47.375-1.105.586-1.768.586H5c-.663 0-1.299-.21-1.768-.586C2.763 20.04 2.5 19.53 2.5 19V5c0-.53.263-1.04.732-1.414C3.702 3.21 4.337 3 5 3h15zM12.5 7v10M15.5 7v10M18.5 7v10M9.5 7v10M6.5 7v10"/></g><defs><clipPath id="bdclip0_5001_27395"><path fill="#fff" transform="translate(.5)" d="M0 0h24v24H0z"/></clipPath></defs></svg><svg viewBox="0 0 25 24" id="nav" xmlns="http://www.w3.org/2000/svg"><g clip-path="url(#beclip0_38_32796)"><path d="M12.5 2a10 10 0 01.324 19.995L12.5 22l-.324-.005A10 10 0 0112.5 2zm.707 5.293a1 1 0 00-1.414 0l-4 4a1.05 1.05 0 00-.083.094l-.064.092-.052.098-.044.11-.03.112-.017.126L7.5 12l.004.09.007.058.025.118.035.105.054.113.043.07.071.095.054.058 4 4 .094.083a1 1 0 001.32-1.497L10.915 13H16.5l.117-.007A1 1 0 0016.5 11h-5.586l2.293-2.293.083-.094a1 1 0 00-.083-1.32z"/></g><defs><clipPath id="beclip0_38_32796"><path fill="#fff" transform="translate(.5)" d="M0 0h24v24H0z"/></clipPath></defs></svg><svg fill="none" viewBox="0 0 121 24" id="next" xmlns="http://www.w3.org/2000/svg"><path d="M115 8l4 4M115 16l4-4M2 12h115" stroke="#000" stroke-width="2" stroke-linecap="round" stroke-linejoin="round"/></svg><svg fill="none" viewBox="0 0 25 25" id="outfits" xmlns="http://www.w3.org/2000/svg"><path d="M19.746 17.691c.002.005.01.016.022.03l-.022-.03zm0 0l-.002-.002.002.002zm.52 1.662l.002-.041.012.041h-.013zm-.453-1.593a.31.31 0 01-.044-.039l.532-.13v.002a.214.214 0 01-.02.047s0 0 0 0a.379.379 0 01-.137.144.3.3 0 01-.099.041s0 0 0 0 0 0 0 0a.26.26 0 01-.088-.003.362.362 0 01-.144-.062zM17.016 3.552l.001.002-.024-.028-.008-.01-.024-.03h0c-.02-.024-.07-.086-.146-.146l-.222-.174.06-.068.363.454zM5.215 7.535v-.001h0zM7.527 20.336l.092-.02-.092.02a1.479 1.479 0 00-.208-.453c-.1-.15-.224-.289-.353-.407a2.219 2.219 0 00-.435-.316 1.291 1.291 0 00-.597-.17v0h-.005a.81.81 0 00-.04.001s0 0 0 0a.837.837 0 00-.137.018s0 0 0 0a.804.804 0 00-.175.06.308.308 0 01-.198.025.879.879 0 01-.298-.134l.043-.063c.172.118.365.176.566.028.05-.037.135-.042.203-.039.683.031 1.58.765 1.726 1.43.045.203.049.42.035.627a.61.61 0 01-.016.109l-.016-.11h0l-.073-.498a1.113 1.113 0 00-.022-.108zm.036.873c-.07.082-.176.125-.318.124h-.399c-.612-.001-1.224-.002-1.832-.05l2.549-.075z" fill="#fff" stroke="#fff" stroke-width="1.333"/><mask id="bga" fill="#fff"><path d="M8.39 15.609c-.364.268-.686.473-.97.72-.972.847-.945.85-2.344.866-.4.005-.8.003-1.199 0-.363-.003-.504-.152-.513-.515-.02-.788.382-1.313 1.05-1.662a3.65 3.65 0 01.653-.253.386.386 0 01.29.032c.19.126.365.092.526-.017.582-.394 1.175-.776 1.728-1.208.672-.523 1.309-1.094 1.96-1.643.306-.258.475-.247.73.06.653.785.861 1.892.084 2.83a.51.51 0 00-.09.299c-.008.523-.001 1.046-.004 1.57-.002.374-.12.49-.492.492-.329.001-.658.004-.987-.002-.28-.005-.415-.14-.42-.422-.005-.355-.001-.71-.001-1.146v-.001zm1.473-2.95c-.275.233-.536.456-.8.677-.868.73-1.722 1.48-2.72 2.04-.316.177-.653.34-1.025.207a.519.519 0 00-.485.047c-.16.098-.33.192-.458.323-.116.12-.181.288-.3.488.614 0 1.145.002 1.676 0 .303-.002.547-.129.785-.317a34.69 34.69 0 011.634-1.219c.346-.244.662-.134.829.256.048.113.082.238.094.36.03.3.045.602.065.9h.395c0-.478.01-.938-.004-1.397a.916.916 0 01.243-.68c.436-.494.458-1.11.071-1.684z"/></mask><path d="M8.39 15.609c-.364.268-.686.473-.97.72-.972.847-.945.85-2.344.866-.4.005-.8.003-1.199 0-.363-.003-.504-.152-.513-.515-.02-.788.382-1.313 1.05-1.662a3.65 3.65 0 01.653-.253.386.386 0 01.29.032c.19.126.365.092.526-.017.582-.394 1.175-.776 1.728-1.208.672-.523 1.309-1.094 1.96-1.643.306-.258.475-.247.73.06.653.785.861 1.892.084 2.83a.51.51 0 00-.09.299c-.008.523-.001 1.046-.004 1.57-.002.374-.12.49-.492.492-.329.001-.658.004-.987-.002-.28-.005-.415-.14-.42-.422-.005-.355-.001-.71-.001-1.146v-.001zm1.473-2.95c-.275.233-.536.456-.8.677-.868.73-1.722 1.48-2.72 2.04-.316.177-.653.34-1.025.207a.519.519 0 00-.485.047c-.16.098-.33.192-.458.323-.116.12-.181.288-.3.488.614 0 1.145.002 1.676 0 .303-.002.547-.129.785-.317a34.69 34.69 0 011.634-1.219c.346-.244.662-.134.829.256.048.113.082.238.094.36.03.3.045.602.065.9h.395c0-.478.01-.938-.004-1.397a.916.916 0 01.243-.68c.436-.494.458-1.11.071-1.684z" fill="#fff"/><path d="M8.39 15.609h1.334V12.97L7.6 14.536l.79 1.073zm-.97.72l.875 1.007-.875-1.006zm-2.344.866l-.015-1.333.015 1.333zm-1.199 0l-.011 1.334.011-1.334zm-.513-.515l-1.333.034 1.333-.034zm1.05-1.662l.618 1.18h.001l-.62-1.18zm.653-.253l.381 1.278h.002l-.383-1.278zm.29.032l-.74 1.109.002.002.738-1.11zm.526-.017l-.748-1.104h-.001l.749 1.104zm1.728-1.208l.82 1.052-.82-1.052zm1.96-1.643l.86 1.019-.86-1.02zm.73.06l1.026-.852-.001-.002-1.024.854zm.084 2.83l-1.027-.851-.001.002 1.028.849zm-.09.299l1.334.021-1.333-.021zm-.004 1.57l1.333.008-1.333-.008zm-.492.492l-.005-1.333.005 1.333zm-.987-.002l-.026 1.333h.001l.025-1.333zm-.42-.422l-1.333.02v.002l1.333-.022zm1.471-4.096h1.334V9.783L9 11.643l.862 1.017zm-.8.676l-.857-1.02.858 1.02zm-2.72 2.04l.653 1.162-.652-1.163zm-1.025.207l.45-1.256h-.001l-.449 1.255zm-.485.047l.697 1.137.004-.003-.7-1.134zm-.458.323l-.955-.93-.001.002.956.928zm-.3.488l-1.146-.682-1.199 2.015h2.345v-1.333zm1.676 0l.004 1.333h.003l-.007-1.333zm.785-.317l.828 1.045.001-.001-.829-1.044zm1.634-1.219l.766 1.091-.766-1.091zm.829.256l1.227-.522-.002-.003L9 15.16zm.094.36l1.327-.134v-.001l-1.327.135zm.065.9l-1.33.09.084 1.243h1.246v-1.333zm.395 0v1.333h1.333v-1.333H9.553zm-.004-1.397l-1.333.043 1.333-.043zm.243-.68l-1-.881H8.79l1 .882zm.071-1.684H8.53v.408l.228.338 1.105-.746zM7.6 14.536c-.263.194-.72.496-1.056.789l1.752 2.01c.232-.202.42-.31.886-.653L7.6 14.536zm-1.056.788c-.26.227-.4.35-.515.438-.097.074-.111.072-.09.064.02-.007 0 .006-.143.017-.158.012-.37.015-.735.02l.03 2.666c.594-.007 1.223.004 1.785-.207.572-.214 1.022-.64 1.42-.986l-1.752-2.012zm-1.483.538c-.387.005-.777.003-1.173 0l-.021 2.667c.402.003.812.004 1.225 0l-.031-2.667zm-1.172 0c-.042 0 .266-.013.55.276.273.278.26.57.258.508l-2.666.068c.008.301.07.85.506 1.294.447.454 1.006.518 1.329.52l.023-2.666zm.808.784c-.004-.145.028-.199.045-.224.025-.04.098-.123.29-.223l-1.237-2.363c-.476.25-.938.604-1.275 1.111a3.005 3.005 0 00-.489 1.767l2.666-.068zm.336-.448c.093-.048.221-.097.415-.155l-.763-2.555a4.966 4.966 0 00-.891.349l1.24 2.361zm.417-.156a.931.931 0 01-.362.038 1.028 1.028 0 01-.471-.174l1.481-2.218a1.64 1.64 0 00-.75-.262 1.738 1.738 0 00-.664.062l.766 2.554zm-.83-.134a1.76 1.76 0 002.012-.025l-1.498-2.206a.908.908 0 01.961.01l-1.476 2.22zm2.011-.024c.546-.37 1.2-.793 1.8-1.26l-1.64-2.103c-.507.395-1.039.737-1.656 1.155l1.496 2.208zm1.8-1.26c.698-.544 1.39-1.163 2-1.676l-1.72-2.039c-.694.586-1.273 1.108-1.92 1.612l1.64 2.103zm2-1.677c.037-.03.008 0-.071.039a1 1 0 01-.51.09 1.005 1.005 0 01-.5-.175c-.075-.054-.101-.092-.073-.058l2.049-1.708c-.157-.188-.572-.662-1.266-.717-.684-.055-1.168.34-1.349.492l1.72 2.037zm-1.154-.105c.18.216.26.432.273.603.01.146-.021.317-.192.523l2.054 1.702c1.289-1.556.865-3.39-.085-4.533l-2.05 1.705zm.08 1.128c-.344.416-.391.902-.395 1.127l2.667.041c-.001.05-.007.107-.026.174a.964.964 0 01-.19.356L9.357 13.97zm-.395 1.126c-.008.524-.002 1.103-.005 1.584l2.667.016c.003-.567-.004-1.034.005-1.557l-2.667-.043zm-.005 1.583c0 .036-.004-.013.021-.104a1.01 1.01 0 01.263-.445c.165-.164.34-.235.446-.263.092-.025.142-.02.107-.02l.011 2.666c.242 0 .845-.021 1.321-.496.475-.475.497-1.078.498-1.32l-2.667-.018zm.836-.832c-.339.001-.647.004-.956-.002l-.05 2.666c.349.007.699.004 1.019.002l-.013-2.667zm-.955-.002a.92.92 0 01.606.286.917.917 0 01.282.603l-2.667.044c.006.328.09.827.494 1.233.406.408.905.494 1.233.5l.052-2.666zm.888.89c-.006-.341-.002-.67-.002-1.125H7.058c0 .416-.004.798.001 1.166l2.667-.04zm-.002-1.125v-.001H7.058h2.666zm-.723-3.968c-.278.236-.535.455-.795.674l1.716 2.041c.265-.223.532-.45.803-.68l-1.724-2.035zm-.796.674c-.905.762-1.652 1.413-2.514 1.897l1.306 2.325c1.13-.635 2.094-1.482 2.925-2.181l-1.717-2.04zm-2.513 1.896c-.07.04-.116.063-.152.08-.035.017-.046.019-.037.017a.513.513 0 01.264.018l-.897 2.511c1 .357 1.84-.14 2.126-.3l-1.304-2.326zm.075.115a1.9 1.9 0 00-.85-.106 1.873 1.873 0 00-.784.274l1.401 2.27a.796.796 0 01-.328.107.772.772 0 01-.336-.034l.897-2.511zm-1.63.166c-.075.046-.44.246-.717.53l1.91 1.86c-.026.029-.037.031.001.006l.076-.047.056-.034.067-.041-1.393-2.274zm-.718.532a2.31 2.31 0 00-.357.492l-.08.147c-.02.04-.037.069-.053.095l2.292 1.364c.044-.074.08-.14.108-.192l.061-.114c.014-.024.015-.024.008-.014a.608.608 0 01-.066.08L3.42 15.024zm.656 2.75h1.68l-.008-2.667H4.075v2.666zm1.683 0c.72-.005 1.249-.323 1.606-.606l-1.655-2.091a.766.766 0 01-.064.046c-.012.008-.014.008-.006.005a.299.299 0 01.106-.02l.013 2.665zm1.607-.607a33.39 33.39 0 011.571-1.172l-1.532-2.182c-.576.404-1.143.826-1.697 1.265l1.658 2.089zm1.572-1.172a.811.811 0 01-.691.07c-.348-.112-.463-.358-.472-.38l2.45-1.05c-.176-.412-.533-.908-1.167-1.11-.657-.21-1.254.007-1.654.288l1.534 2.182zm-1.165-.312a.139.139 0 01-.006-.027l2.654-.271a2.595 2.595 0 00-.194-.747l-2.454 1.045zm-.005-.029c.027.272.038.52.06.856l2.661-.18c-.018-.26-.035-.615-.068-.944l-2.653.268zm1.39 2.1h.396v-2.668h-.395v2.667zm1.729-1.334c0-.435.011-.953-.005-1.44l-2.665.086c.014.431.003.833.003 1.354h2.667zm-.005-1.44c0 .004 0 .055-.024.126a.393.393 0 01-.064.119L8.79 13.464a2.246 2.246 0 00-.575 1.603l2.665-.086zm-.09.246a2.63 2.63 0 00.677-1.64c.026-.618-.175-1.19-.5-1.672l-2.21 1.491a.35.35 0 01.046.086c.002.01 0 .003 0-.014 0-.018.005-.034.008-.042.004-.007.001.002-.02.027l2 1.764zm.406-2.567H8.53h2.667z" fill="#fff" mask="url(#bga)"/></svg><svg fill="none" viewBox="0 0 24 24" id="pinterest" xmlns="http://www.w3.org/2000/svg"><g clip-path="url(#bhclip0_5001_49144)"><path d="M8 20l4-9M10.7 13.998c.437 1.263 1.43 2 2.55 2 2.071 0 3.75-1.554 3.75-4a4.999 4.999 0 00-7.864-4.104A5 5 0 007.3 13.698"/><path d="M3 12a9 9 0 1018.001 0A9 9 0 003 12z"/></g><defs><clipPath id="bhclip0_5001_49144"><path fill="#fff" d="M0 0h24v24H0z"/></clipPath></defs></svg><svg fill="none" viewBox="0 0 121 24" id="prev" xmlns="http://www.w3.org/2000/svg"><g opacity=".2" stroke="#000" stroke-width="2" stroke-linecap="round" stroke-linejoin="round"><path d="M119 12H4M6 8l-4 4M6 16l-4-4"/></g></svg><svg fill="none" viewBox="0 0 24 24" id="price" xmlns="http://www.w3.org/2000/svg"><g clip-path="url(#bjclip0_5001_48391)" stroke="#000" stroke-width="2" stroke-linecap="round" stroke-linejoin="round"><path d="M3 12a9 9 0 1018.001 0A9 9 0 003 12z"/><path d="M13.867 9.75c-.246-.48-.708-.77-1.2-.75h-1.334C10.597 9 10 9.67 10 10.5c0 .827.597 1.499 1.333 1.499h1.334c.736 0 1.333.67 1.333 1.5 0 .828-.597 1.499-1.333 1.499h-1.334c-.492.019-.954-.27-1.2-.75M12 7v2M12 15v2"/></g><defs><clipPath id="bjclip0_5001_48391"><path fill="#fff" d="M0 0h24v24H0z"/></clipPath></defs></svg><svg viewBox="0 0 24 25" id="question" xmlns="http://www.w3.org/2000/svg"><g fill-rule="evenodd" clip-rule="evenodd"><path d="M4.929 5.429A10 10 0 1119.07 19.57 10 10 0 014.93 5.43zM12 4.5a8 8 0 100 16 8 8 0 000-16z"/><path d="M12 15.5a1 1 0 011 1v.01a1 1 0 11-2 0v-.01a1 1 0 011-1zM11.427 8.558a3 3 0 11.57 5.942 1 1 0 01.006-2 1 1 0 00.457-1.891l-.002-.001a.98.98 0 00-1.195.239 1 1 0 11-1.526-1.292 2.98 2.98 0 011.69-.997z"/></g></svg><svg fill="none" viewBox="0 0 24 24" id="quote" xmlns="http://www.w3.org/2000/svg"><g clip-path="url(#blclip0_1029_60728)" stroke="#000" stroke-width="2" stroke-linecap="round" stroke-linejoin="round"><path d="M10 11H6a1 1 0 01-1-1V7a1 1 0 011-1h3a1 1 0 011 1v6c0 2.667-1.333 4.333-4 5M19 11h-4a1 1 0 01-1-1V7a1 1 0 011-1h3a1 1 0 011 1v6c0 2.667-1.333 4.333-4 5"/></g><defs><clipPath id="blclip0_1029_60728"><path fill="#fff" d="M0 0h24v24H0z"/></clipPath></defs></svg><svg fill="none" viewBox="0 0 20 20" id="radio" xmlns="http://www.w3.org/2000/svg"><path d="M15 1.34A10 10 0 11.005 10.324L0 10l.005-.324A10 10 0 0115 1.34zm-1.293 5.953a1 1 0 00-1.32-.083l-.094.083L9 10.585 7.707 9.293l-.094-.083a1 1 0 00-1.403 1.403l.083.094 2 2 .094.083a1 1 0 001.226 0l.094-.083 4-4 .083-.094a1 1 0 00-.083-1.32z" fill="#1890FF"/></svg><svg fill="none" viewBox="0 0 24 24" id="resize" xmlns="http://www.w3.org/2000/svg"><g clip-path="url(#bnclip0_38_32785)"><path d="M16 4h4v4M14 10l6-6M8 20H4v-4M4 20l6-6M16 20h4v-4M14 14l6 6M8 4H4v4M4 4l6 6"/></g><defs><clipPath id="bnclip0_38_32785"><path fill="#fff" d="M0 0h24v24H0z"/></clipPath></defs></svg><svg fill="none" viewBox="0 0 25 24" id="sale" xmlns="http://www.w3.org/2000/svg"><g opacity=".8" clip-path="url(#boclip0_5001_51149)" stroke="#212121" stroke-width="2" stroke-linecap="round" stroke-linejoin="round"><path d="M9.5 15l6-6"/><path d="M10 10a.5.5 0 100-1 .5.5 0 000 1zM15 15a.5.5 0 100-1 .5.5 0 000 1z" fill="#212121"/><path d="M5.5 7.2A2.2 2.2 0 017.7 5h1a2.2 2.2 0 001.55-.64l.7-.7a2.2 2.2 0 013.12 0l.7.7c.412.41.97.64 1.55.64h1a2.2 2.2 0 012.2 2.2v1c0 .581.23 1.139.64 1.55l.7.7a2.2 2.2 0 010 3.12l-.7.7a2.2 2.2 0 00-.64 1.55v1a2.2 2.2 0 01-2.2 2.2h-1a2.2 2.2 0 00-1.55.64l-.7.7a2.202 2.202 0 01-3.12 0l-.7-.7a2.2 2.2 0 00-1.55-.64h-1a2.2 2.2 0 01-2.2-2.2v-1a2.2 2.2 0 00-.64-1.55l-.7-.7a2.2 2.2 0 010-3.12l.7-.7A2.2 2.2 0 005.5 8.2v-1z"/></g><defs><clipPath id="boclip0_5001_51149"><path fill="#fff" transform="translate(.5)" d="M0 0h24v24H0z"/></clipPath></defs></svg><svg fill="none" viewBox="0 0 24 24" id="sales" xmlns="http://www.w3.org/2000/svg"><g clip-path="url(#bpclip0_5001_39543)" stroke="#000" stroke-width="2" stroke-linecap="round" stroke-linejoin="round"><path d="M9 15l6-6"/><path d="M9.5 10a.5.5 0 100-1 .5.5 0 000 1zM14.5 15a.5.5 0 100-1 .5.5 0 000 1z" fill="#000"/><path d="M3 12a9 9 0 1018.001 0A9 9 0 003 12z"/></g><defs><clipPath id="bpclip0_5001_39543"><path fill="#fff" d="M0 0h24v24H0z"/></clipPath></defs></svg><svg fill="none" viewBox="0 0 24 24" id="search" xmlns="http://www.w3.org/2000/svg"><g clip-path="url(#bqclip0_1_32046)"><path d="M3 10a7 7 0 1014 0 7 7 0 00-14 0zM21 21l-6-6"/></g><defs><clipPath id="bqclip0_1_32046"><path fill="#fff" d="M0 0h24v24H0z"/></clipPath></defs></svg><svg fill="none" viewBox="0 0 24 24" id="sizes" xmlns="http://www.w3.org/2000/svg"><g clip-path="url(#brclip0_5001_35402)" stroke="#000" stroke-width="2" stroke-linecap="round" stroke-linejoin="round"><path d="M17 3l4 4L7 21l-4-4L17 3zM16 7l-1.5-1.5M13 10l-1.5-1.5M10 13l-1.5-1.5M7 16l-1.5-1.5"/></g><defs><clipPath id="brclip0_5001_35402"><path fill="#fff" d="M0 0h24v24H0z"/></clipPath></defs></svg><svg fill="none" viewBox="0 0 24 24" id="sort" xmlns="http://www.w3.org/2000/svg"><g clip-path="url(#bsclip0_5001_34947)" stroke="#000" stroke-width="2" stroke-linecap="round" stroke-linejoin="round"><path d="M3 9l4-4m0 0l4 4M7 5v14M21 15l-4 4m0 0l-4-4m4 4V5"/></g><defs><clipPath id="bsclip0_5001_34947"><path fill="#fff" d="M0 0h24v24H0z"/></clipPath></defs></svg><svg fill="none" viewBox="0 0 24 24" id="tiktok" xmlns="http://www.w3.org/2000/svg"><g clip-path="url(#btclip0_5001_49154)"><path d="M21 7.917v4.034A9.949 9.949 0 0116 10v4.5a6.5 6.5 0 11-8-6.326V12.5a2.5 2.5 0 104 2V3h4.083A6.005 6.005 0 0021 7.917z"/></g><defs><clipPath id="btclip0_5001_49154"><path fill="#fff" d="M0 0h24v24H0z"/></clipPath></defs></svg><svg fill="none" viewBox="0 0 24 24" id="twitter" xmlns="http://www.w3.org/2000/svg"><g clip-path="url(#buclip0_1165_31557)"><path d="M22 4.009c-1 .49-1.98.689-3 .99-1.121-1.265-2.783-1.335-4.38-.737S11.977 6.322 12 7.999v1c-3.245.083-6.135-1.395-8-4 0 0-4.182 7.433 4 11-1.872 1.247-3.739 2.088-6 2 3.308 1.803 6.913 2.423 10.034 1.517 3.58-1.04 6.522-3.723 7.651-7.742a13.84 13.84 0 00.497-3.753c0-.249 1.51-2.772 1.818-4.013v.001z"/></g><defs><clipPath id="buclip0_1165_31557"><path fill="#fff" d="M0 0h24v24H0z"/></clipPath></defs></svg><svg fill="none" viewBox="0 0 33 32" id="user" xmlns="http://www.w3.org/2000/svg"><rect x=".921" y=".421" width="31.158" height="31.158" rx="15.579" stroke="#fff" stroke-width=".842"/><g clip-path="url(#bvclip0_5001_46384)" stroke="#fff" stroke-width="1.684" stroke-linecap="round" stroke-linejoin="round"><path d="M13.13 11.79a3.368 3.368 0 106.737 0 3.368 3.368 0 00-6.736 0zM11.447 23.578v-1.684a3.368 3.368 0 013.369-3.369h3.368a3.368 3.368 0 013.368 3.369v1.684"/></g><defs><clipPath id="bvclip0_5001_46384"><path fill="#fff" transform="translate(6.395 5.895)" d="M0 0h20.21v20.21H0z"/></clipPath></defs></svg><svg fill="none" viewBox="0 0 24 24" id="x" xmlns="http://www.w3.org/2000/svg"><g clip-path="url(#bwclip0_5001_49140)"><path d="M4 4l11.733 16H20L8.267 4H4zM4 20l6.768-6.768m2.46-2.46L20 4"/></g><defs><clipPath id="bwclip0_5001_49140"><path fill="#fff" d="M0 0h24v24H0z"/></clipPath></defs></svg><svg fill="none" viewBox="0 0 24 24" id="youtube" xmlns="http://www.w3.org/2000/svg"><g clip-path="url(#bxclip0_1165_31560)"><path d="M3 9a4 4 0 014-4h10a4 4 0 014 4v6a4 4 0 01-4 4H7a4 4 0 01-4-4V9z"/><path d="M10 9l5 3-5 3V9z"/></g><defs><clipPath id="bxclip0_1165_31560"><path fill="#fff" d="M0 0h24v24H0z"/></clipPath></defs></svg></svg>