<?xml version="1.0" encoding="utf-8"?><!DOCTYPE svg PUBLIC "-//W3C//DTD SVG 1.1//EN" "http://www.w3.org/Graphics/SVG/1.1/DTD/svg11.dtd"><svg viewBox="0 0 800 800" xmlns="http://www.w3.org/2000/svg" xmlns:xlink="http://www.w3.org/1999/xlink"><style>:root>svg{display:none}:root>svg:target{display:block}</style><svg fill="none" viewBox="0 0 25 24" id="arrow" xmlns="http://www.w3.org/2000/svg"><g clip-path="url(#aaclip0_1_19728)"><path d="M5.5 12h14M15.5 16l4-4M15.5 8l4 4"/></g><defs><clipPath id="aaclip0_1_19728"><path fill="#fff" transform="translate(.5)" d="M0 0h24v24H0z"/></clipPath></defs></svg><svg fill="none" viewBox="0 0 24 24" id="arrow2" xmlns="http://www.w3.org/2000/svg"><g clip-path="url(#abclip0_1_32053)"><path d="M18 9l-6 6-6-6" stroke="#212121" stroke-width="2" stroke-linecap="round" stroke-linejoin="round"/></g><defs><clipPath id="abclip0_1_32053"><path fill="#fff" transform="rotate(90 12 12)" d="M0 0h24v24H0z"/></clipPath></defs></svg><svg fill="none" viewBox="0 0 24 24" id="arrow2-str" xmlns="http://www.w3.org/2000/svg"><g clip-path="url(#acclip0_1_32053)"><path d="M18 9l-6 6-6-6"/></g><defs><clipPath id="acclip0_1_32053"><path fill="#fff" transform="rotate(90 12 12)" d="M0 0h24v24H0z"/></clipPath></defs></svg><svg viewBox="0 0 25 25" id="attention" xmlns="http://www.w3.org/2000/svg"><g fill-rule="evenodd" clip-rule="evenodd"><path d="M8.673 3.261a10 10 0 117.654 18.478A10 10 0 018.673 3.261zM12.5 4.5a8 8 0 100 16 8 8 0 000-16z"/><path d="M12.5 8.5a1 1 0 011 1v4a1 1 0 11-2 0v-4a1 1 0 011-1zM12.5 15.5a1 1 0 011 1v.01a1 1 0 11-2 0v-.01a1 1 0 011-1z"/></g></svg><svg fill="none" viewBox="0 0 61 60" id="bar" xmlns="http://www.w3.org/2000/svg"><circle cx="30.695" cy="30" r="25.5" stroke="#A5C9FF" stroke-width="7"/></svg><svg data-name="Layer 1" viewBox="0 0 24 24" id="bars" xmlns="http://www.w3.org/2000/svg"><path d="M24 3.5c0 .83-.67 1.5-1.5 1.5h-21C.67 5 0 4.33 0 3.5S.67 2 1.5 2h21c.83 0 1.5.67 1.5 1.5zM14.5 20h-5c-.83 0-1.5.67-1.5 1.5S8.67 23 9.5 23h5c.83 0 1.5-.67 1.5-1.5s-.67-1.5-1.5-1.5zm4-9h-13c-.83 0-1.5.67-1.5 1.5S4.67 14 5.5 14h13c.83 0 1.5-.67 1.5-1.5s-.67-1.5-1.5-1.5z"/></svg><svg fill="none" viewBox="0 0 24 24" id="brands" xmlns="http://www.w3.org/2000/svg"><g clip-path="url(#agclip0_3340_200141)" stroke="#000" stroke-width="2" stroke-linecap="round" stroke-linejoin="round"><path d="M6.5 7.5a1 1 0 102 0 1 1 0 00-2 0z"/><path d="M3 6v5.172a2 2 0 00.586 1.414l7.71 7.71a2.41 2.41 0 003.408 0l5.592-5.592a2.41 2.41 0 000-3.408l-7.71-7.71A2 2 0 0011.172 3H6a3 3 0 00-3 3z"/></g><defs><clipPath id="agclip0_3340_200141"><path fill="#fff" d="M0 0h24v24H0z"/></clipPath></defs></svg><svg fill="none" viewBox="0 0 24 24" id="category" xmlns="http://www.w3.org/2000/svg"><g clip-path="url(#ahclip0_5001_33480)" stroke="#000" stroke-width="2" stroke-linecap="round" stroke-linejoin="round"><path d="M4 4h6v6H4V4zM14 4h6v6h-6V4zM4 14h6v6H4v-6zM14 17a3 3 0 106 0 3 3 0 00-6 0z"/></g><defs><clipPath id="ahclip0_5001_33480"><path fill="#fff" d="M0 0h24v24H0z"/></clipPath></defs></svg><svg viewBox="0 0 24 24" fill="none" id="check" xmlns="http://www.w3.org/2000/svg"><path d="M4 12.611L8.923 17.5 20 6.5" stroke="#000" stroke-width="2" stroke-linecap="round" stroke-linejoin="round"/></svg><svg fill="none" viewBox="0 0 20 20" id="checkbox" xmlns="http://www.w3.org/2000/svg"><path d="M16.333 0c1.96 0 3.56 1.537 3.662 3.472l.005.195v12.666c0 1.96-1.537 3.56-3.472 3.662l-.195.005H3.667a3.667 3.667 0 01-3.662-3.472L0 16.333V3.667C0 1.707 1.537.107 3.472.005L3.667 0h12.666zm-2.626 7.293a1 1 0 00-1.414 0L9 10.585 7.707 9.293l-.094-.083a1 1 0 00-1.32 1.497l2 2 .094.083a1 1 0 001.32-.083l4-4 .083-.094a1 1 0 00-.083-1.32z" fill="#1890FF"/></svg><svg viewBox="0 0 126 126" fill="none" id="circle" xmlns="http://www.w3.org/2000/svg"><path clip-rule="evenodd" d="M3 63C3 29.863 29.863 3 63 3s60 26.863 60 60-26.863 60-60 60S3 96.137 3 63z"/></svg><svg viewBox="0 0 24 24" id="close" xmlns="http://www.w3.org/2000/svg"><path fill-rule="evenodd" clip-rule="evenodd" d="M19.207 6.207a1 1 0 00-1.414-1.414L12 10.586 6.207 4.793a1 1 0 00-1.414 1.414L10.586 12l-5.793 5.793a1 1 0 101.414 1.414L12 13.414l5.793 5.793a1 1 0 001.414-1.414L13.414 12l5.793-5.793z"/></svg><svg fill="none" viewBox="0 0 24 24" id="color" xmlns="http://www.w3.org/2000/svg"><g clip-path="url(#amclip0_5001_35450)" stroke="#000" stroke-width="2" stroke-linecap="round" stroke-linejoin="round"><path d="M12 21a9 9 0 110-18c4.97 0 9 3.582 9 8 0 1.06-.474 2.078-1.318 2.828-.844.75-1.989 1.172-3.182 1.172H14a2 2 0 00-1 3.75A1.3 1.3 0 0112 21z"/><path d="M7.5 10.5a1 1 0 102 0 1 1 0 00-2 0zM11.5 7.5a1 1 0 102 0 1 1 0 00-2 0zM15.5 10.5a1 1 0 102 0 1 1 0 00-2 0z"/></g><defs><clipPath id="amclip0_5001_35450"><path fill="#fff" d="M0 0h24v24H0z"/></clipPath></defs></svg><svg fill="none" viewBox="0 0 24 24" id="dollar" xmlns="http://www.w3.org/2000/svg"><g clip-path="url(#anclip0_1_32065)" stroke="#212121" stroke-width="2" stroke-linecap="round" stroke-linejoin="round"><path d="M16.7 8A3 3 0 0014 6h-4a3 3 0 100 6h4a3 3 0 010 6h-4a3 3 0 01-2.7-2M12 3v3m0 12v3"/></g><defs><clipPath id="anclip0_1_32065"><path fill="#fff" d="M0 0h24v24H0z"/></clipPath></defs></svg><svg viewBox="0 0 24 24" fill="none" id="done" xmlns="http://www.w3.org/2000/svg"><path d="M4 12.611L8.923 17.5 20 6.5"/></svg><svg fill="none" viewBox="0 0 16 16" id="eye" xmlns="http://www.w3.org/2000/svg"><g clip-path="url(#apclip0_3022_88670)" stroke="#000" stroke-width="1.333" stroke-linecap="round" stroke-linejoin="round"><path d="M6.666 8a1.333 1.333 0 102.667 0 1.333 1.333 0 00-2.667 0z"/><path d="M14 8c-1.6 2.667-3.6 4-6 4s-4.4-1.333-6-4c1.6-2.667 3.6-4 6-4s4.4 1.333 6 4z"/></g><defs><clipPath id="apclip0_3022_88670"><path fill="#fff" d="M0 0h16v16H0z"/></clipPath></defs></svg><svg fill="none" viewBox="0 0 24 24" id="facebook" xmlns="http://www.w3.org/2000/svg"><g clip-path="url(#aqclip0_1165_31554)"><path d="M7 10v4h3v7h4v-7h3l1-4h-4V8a1 1 0 011-1h3V3h-3a5 5 0 00-5 5v2H7z"/></g><defs><clipPath id="aqclip0_1165_31554"><path fill="#fff" d="M0 0h24v24H0z"/></clipPath></defs></svg><svg fill="none" viewBox="0 0 24 24" id="facebook2" xmlns="http://www.w3.org/2000/svg"><g clip-path="url(#arclip0_5001_49137)"><path d="M7 10v4h3v7h4v-7h3l1-4h-4V8a1 1 0 011-1h3V3h-3a5 5 0 00-5 5v2H7z"/></g><defs><clipPath id="arclip0_5001_49137"><path fill="#fff" d="M0 0h24v24H0z"/></clipPath></defs></svg><svg fill="none" viewBox="0 0 24 24" id="filter" xmlns="http://www.w3.org/2000/svg"><g clip-path="url(#asclip0_529_10556)"><path d="M4 4h16v2.172a2 2 0 01-.586 1.414L15 12v7l-6 2v-8.5L4.52 7.572A2 2 0 014 6.227V4z" stroke="#000" stroke-width="2" stroke-linecap="round" stroke-linejoin="round"/></g><defs><clipPath id="asclip0_529_10556"><path fill="#fff" d="M0 0h24v24H0z"/></clipPath></defs></svg><svg fill="none" viewBox="0 0 25 24" id="folder" xmlns="http://www.w3.org/2000/svg"><g clip-path="url(#atclip0_5001_48848)" stroke="#212121" stroke-width="2" stroke-linecap="round" stroke-linejoin="round"><path d="M4.5 6a2 2 0 012-2h12a2 2 0 012 2v12a2 2 0 01-2 2h-12a2 2 0 01-2-2V6zM9.5 4v16"/></g><defs><clipPath id="atclip0_5001_48848"><path fill="#fff" transform="translate(.5)" d="M0 0h24v24H0z"/></clipPath></defs></svg><svg viewBox="0 0 16 16" id="heart" xmlns="http://www.w3.org/2000/svg"><path fill-rule="evenodd" clip-rule="evenodd" d="M5.607 3.34a2.667 2.667 0 00-2.143 4.563l.005.004 4.53 4.488 4.531-4.488a.66.66 0 01.043-.038A2.67 2.67 0 0012.421 4a2.667 2.667 0 00-3.889.403.667.667 0 01-1.068-.003 2.667 2.667 0 00-1.857-1.06zm7.816 5.56l-4.954 4.907a.667.667 0 01-.939 0l-4.998-4.95a4 4 0 015.47-5.836 4 4 0 015.465 5.84.67.67 0 01-.044.04z"/></svg><svg fill="none" viewBox="0 0 24 24" id="home" xmlns="http://www.w3.org/2000/svg"><g clip-path="url(#avclip0_1165_31576)"><path d="M5 12H3l9-9 9 9h-2M5 12v7a2 2 0 002 2h10a2 2 0 002-2v-7"/><path d="M9 21v-6a2 2 0 012-2h2a2 2 0 012 2v6"/></g><defs><clipPath id="avclip0_1165_31576"><path fill="#fff" d="M0 0h24v24H0z"/></clipPath></defs></svg><svg viewBox="0 0 16 17" id="image" xmlns="http://www.w3.org/2000/svg"><g fill-rule="evenodd" clip-rule="evenodd"><path d="M9.332 5.835c0-.369.299-.667.667-.667h.006a.667.667 0 010 1.333H10a.667.667 0 01-.667-.666z"/><path d="M3.999 3.165A1.333 1.333 0 002.665 4.5v8A1.333 1.333 0 004 13.832h4.333a.667.667 0 010 1.333H3.999A2.667 2.667 0 011.332 12.5v-8a2.667 2.667 0 012.667-2.667h8a2.667 2.667 0 012.666 2.667v4.333a.667.667 0 01-1.333 0V4.499a1.333 1.333 0 00-1.333-1.334h-8z"/><path d="M5.798 8.308L2.47 11.637a.667.667 0 01-.943-.943L4.861 7.36l.009-.01c.41-.393.914-.632 1.462-.632.549 0 1.053.239 1.462.633l.01.009 2.666 2.666a.667.667 0 11-.943.943L6.866 8.308c-.208-.198-.393-.256-.534-.256-.141 0-.326.058-.534.256z"/><path d="M10.468 9.643c.29-.276.54-.295.747-.215a.667.667 0 00.482-1.243c-.768-.298-1.556-.077-2.158.501l-.01.01-.666.666a.667.667 0 00.943.943l.662-.662zM10 13.167c0-.368.299-.667.667-.667h4a.667.667 0 010 1.333h-4a.667.667 0 01-.667-.666z"/><path d="M12.667 10.5c.368 0 .666.299.666.667v4a.667.667 0 11-1.333 0v-4c0-.368.299-.667.667-.667z"/></g></svg><svg fill="none" viewBox="0 0 24 24" id="instagram" xmlns="http://www.w3.org/2000/svg"><g clip-path="url(#axclip0_5001_49149)"><path d="M4 8a4 4 0 014-4h8a4 4 0 014 4v8a4 4 0 01-4 4H8a4 4 0 01-4-4V8z"/><path d="M9 12a3 3 0 106 0 3 3 0 00-6 0zM16.5 7.5v.01"/></g><defs><clipPath id="axclip0_5001_49149"><path fill="#fff" d="M0 0h24v24H0z"/></clipPath></defs></svg><svg fill="none" viewBox="0 0 24 24" id="linkedin" xmlns="http://www.w3.org/2000/svg"><g clip-path="url(#ayclip0_1165_31564)"><path d="M4 6a2 2 0 012-2h12a2 2 0 012 2v12a2 2 0 01-2 2H6a2 2 0 01-2-2V6zM8 11v5M8 8v.01M12 16v-5"/><path d="M16 16v-3a2 2 0 00-4 0"/></g><defs><clipPath id="ayclip0_1165_31564"><path fill="#fff" d="M0 0h24v24H0z"/></clipPath></defs></svg><svg fill="none" viewBox="0 0 24 24" id="load" xmlns="http://www.w3.org/2000/svg"><g clip-path="url(#azclip0_38_14197)"><path d="M19.932 13.04a8 8 0 11-9.925-8.788c3.9-1 7.935 1.007 9.425 4.747"/><path d="M20 4v5h-5"/></g><defs><clipPath id="azclip0_38_14197"><path fill="#fff" d="M0 0h24v24H0z"/></clipPath></defs></svg><svg viewBox="0 0 20 20" id="menu" xmlns="http://www.w3.org/2000/svg"><path fill-rule="evenodd" d="M19 4a1 1 0 01-1 1H2a1 1 0 010-2h16a1 1 0 011 1zm0 6a1 1 0 01-1 1H2a1 1 0 110-2h16a1 1 0 011 1zm-1 7a1 1 0 100-2H2a1 1 0 100 2h16z"/></svg><svg fill="none" viewBox="0 0 32 32" id="mode1" xmlns="http://www.w3.org/2000/svg"><g clip-path="url(#bbclip0_3366_203834)"><path d="M25.999 4c.884 0 1.732.28 2.357.781.625.5.976 1.178.976 1.886v18.666c0 .708-.351 1.386-.976 1.886S26.883 28 25.999 28h-20c-.884 0-1.732-.281-2.357-.781-.625-.5-.977-1.178-.977-1.886V6.667c0-.708.352-1.386.977-1.886S5.115 4 5.999 4h20zM16 9.334v13.333"/></g><defs><clipPath id="bbclip0_3366_203834"><path fill="#fff" d="M0 0h32v32H0z"/></clipPath></defs></svg><svg fill="none" viewBox="0 0 25 24" id="mode2" xmlns="http://www.w3.org/2000/svg"><g clip-path="url(#bcclip0_38_7937)"><path d="M20 3c.663 0 1.299.21 1.768.586.469.375.732.884.732 1.414v14c0 .53-.263 1.04-.732 1.414-.47.375-1.105.586-1.768.586H5c-.663 0-1.299-.21-1.768-.586C2.763 20.04 2.5 19.53 2.5 19V5c0-.53.263-1.04.732-1.414C3.702 3.21 4.337 3 5 3h15zM14.5 7v10M10.5 7v10"/></g><defs><clipPath id="bcclip0_38_7937"><path fill="#fff" transform="translate(.5)" d="M0 0h24v24H0z"/></clipPath></defs></svg><svg fill="none" viewBox="0 0 24 24" id="mode3" xmlns="http://www.w3.org/2000/svg"><g clip-path="url(#bdclip0_38_29611)"><path d="M19.5 3c.663 0 1.299.21 1.768.586C21.737 3.96 22 4.47 22 5v14c0 .53-.263 1.04-.732 1.414-.47.375-1.105.586-1.768.586h-15c-.663 0-1.299-.21-1.768-.586C2.263 20.04 2 19.53 2 19V5c0-.53.263-1.04.732-1.414C3.202 3.21 3.837 3 4.5 3h15zM16 7v10M12 7v10M8 7v10"/></g><defs><clipPath id="bdclip0_38_29611"><path fill="#fff" d="M0 0h24v24H0z"/></clipPath></defs></svg><svg fill="none" viewBox="0 0 24 24" id="mode4" xmlns="http://www.w3.org/2000/svg"><g clip-path="url(#beclip0_38_29618)"><path d="M19.5 3c.663 0 1.299.21 1.768.586C21.737 3.96 22 4.47 22 5v14c0 .53-.263 1.04-.732 1.414-.47.375-1.105.586-1.768.586h-15c-.663 0-1.299-.21-1.768-.586C2.263 20.04 2 19.53 2 19V5c0-.53.263-1.04.732-1.414C3.202 3.21 3.837 3 4.5 3h15zM14 7v10M18 7v10M10 7v10M6 7v10"/></g><defs><clipPath id="beclip0_38_29618"><path fill="#fff" d="M0 0h24v24H0z"/></clipPath></defs></svg><svg fill="none" viewBox="0 0 25 24" id="mode5" xmlns="http://www.w3.org/2000/svg"><g clip-path="url(#bfclip0_5001_27395)"><path d="M20 3c.663 0 1.299.21 1.768.586.469.375.732.884.732 1.414v14c0 .53-.263 1.04-.732 1.414-.47.375-1.105.586-1.768.586H5c-.663 0-1.299-.21-1.768-.586C2.763 20.04 2.5 19.53 2.5 19V5c0-.53.263-1.04.732-1.414C3.702 3.21 4.337 3 5 3h15zM12.5 7v10M15.5 7v10M18.5 7v10M9.5 7v10M6.5 7v10"/></g><defs><clipPath id="bfclip0_5001_27395"><path fill="#fff" transform="translate(.5)" d="M0 0h24v24H0z"/></clipPath></defs></svg><svg viewBox="0 0 25 24" id="nav" xmlns="http://www.w3.org/2000/svg"><g clip-path="url(#bgclip0_38_32796)"><path d="M12.5 2a10 10 0 01.324 19.995L12.5 22l-.324-.005A10 10 0 0112.5 2zm.707 5.293a1 1 0 00-1.414 0l-4 4a1.05 1.05 0 00-.083.094l-.064.092-.052.098-.044.11-.03.112-.017.126L7.5 12l.004.09.007.058.025.118.035.105.054.113.043.07.071.095.054.058 4 4 .094.083a1 1 0 001.32-1.497L10.915 13H16.5l.117-.007A1 1 0 0016.5 11h-5.586l2.293-2.293.083-.094a1 1 0 00-.083-1.32z"/></g><defs><clipPath id="bgclip0_38_32796"><path fill="#fff" transform="translate(.5)" d="M0 0h24v24H0z"/></clipPath></defs></svg><svg fill="none" viewBox="0 0 121 24" id="next" xmlns="http://www.w3.org/2000/svg"><path d="M115 8l4 4M115 16l4-4M2 12h115" stroke="#000" stroke-width="2" stroke-linecap="round" stroke-linejoin="round"/></svg><svg viewBox="0 0 256 256" id="outfits" xmlns="http://www.w3.org/2000/svg"><path fill="#fff" d="M125.1 59.5c-8.6 1.3-15.1 8.3-15.9 16.8-.2 2.9-.1 3.5 1 4.7 2.6 2.8 7.5 1 7.5-2.8 0-1.9 1.4-5.4 2.8-6.9 4.8-5.3 13.8-3.8 16.8 2.7 2.3 5.1.9 8.8-6 15.6-5.1 5.1-7.2 8.6-7.6 12.6-.3 2.4-.3 2.4-3.4 3.1-1.7.4-5 1.7-7.3 2.8-4.4 2.2-9.4 6.8-19 17.5-8.6 9.5-17.2 15-47.2 29.7-21.8 10.7-25.7 12.9-30 16.8-3.4 3.1-5.2 5.9-6.2 10-1.8 6.7.7 12.3 6.3 13.8 3.3.9 219 .9 222.2 0 5.6-1.5 8.1-7.1 6.3-13.8-1-4.1-2.8-6.9-6.2-10-4.3-4-8.2-6.1-30-16.8-30-14.8-38.7-20.2-47.2-29.7-9.6-10.7-14.6-15.3-19-17.5-2.4-1.1-5.7-2.4-7.6-2.8-1.8-.4-3.4-.9-3.4-1.1 0-1.8 2.4-5.3 6.9-9.9 6.7-6.9 7.8-9.1 7.8-16.1 0-4.3-.2-5.6-1.4-8-3.7-7.6-12-12-20.2-10.7zm12.3 55.5c4.5 2.1 8 5.1 14.2 12.3 11.5 13.5 23.2 21.4 51.2 34.7 24 11.4 30.3 15.1 32.8 19.4 1.1 2 2 6.1 1.3 6.1-.1 0-19.5-9.6-43.2-21.3-23.6-11.7-44.7-22-47-22.9-12.8-5.1-25.3-5-38.2.3-2.1.8-23 11-46.5 22.7s-42.8 21.2-43 21.2c-.7 0 .1-4.1 1.3-6.1 2.5-4.3 9.2-8.2 33.4-19.6 26.9-12.7 38.7-20.7 49.4-33 11.3-13.2 15.2-15.4 25.8-15.2 4.4.1 6.3.5 8.5 1.4zm-.1 34.6c6.1 1.6 7.5 2.2 45.3 21l34.2 16.9H39.3l34.2-16.9c18.8-9.4 35.7-17.6 37.6-18.4 8.7-3.8 18-4.7 26.2-2.6z"/></svg><svg fill="none" viewBox="0 0 24 24" id="pinterest" xmlns="http://www.w3.org/2000/svg"><g clip-path="url(#bjclip0_5001_49144)"><path d="M8 20l4-9M10.7 13.998c.437 1.263 1.43 2 2.55 2 2.071 0 3.75-1.554 3.75-4a4.999 4.999 0 00-7.864-4.104A5 5 0 007.3 13.698"/><path d="M3 12a9 9 0 1018.001 0A9 9 0 003 12z"/></g><defs><clipPath id="bjclip0_5001_49144"><path fill="#fff" d="M0 0h24v24H0z"/></clipPath></defs></svg><svg fill="none" viewBox="0 0 121 24" id="prev" xmlns="http://www.w3.org/2000/svg"><g opacity=".2" stroke="#000" stroke-width="2" stroke-linecap="round" stroke-linejoin="round"><path d="M119 12H4M6 8l-4 4M6 16l-4-4"/></g></svg><svg fill="none" viewBox="0 0 24 24" id="price" xmlns="http://www.w3.org/2000/svg"><g clip-path="url(#blclip0_5001_48391)" stroke="#000" stroke-width="2" stroke-linecap="round" stroke-linejoin="round"><path d="M3 12a9 9 0 1018.001 0A9 9 0 003 12z"/><path d="M13.867 9.75c-.246-.48-.708-.77-1.2-.75h-1.334C10.597 9 10 9.67 10 10.5c0 .827.597 1.499 1.333 1.499h1.334c.736 0 1.333.67 1.333 1.5 0 .828-.597 1.499-1.333 1.499h-1.334c-.492.019-.954-.27-1.2-.75M12 7v2M12 15v2"/></g><defs><clipPath id="blclip0_5001_48391"><path fill="#fff" d="M0 0h24v24H0z"/></clipPath></defs></svg><svg fill="none" viewBox="0 0 61 60" id="progress" xmlns="http://www.w3.org/2000/svg"><path d="M31 55.5c34-2 33-49 0-51" stroke="#3D71F4" stroke-width="7" stroke-linecap="round"/></svg><svg viewBox="0 0 24 25" id="question" xmlns="http://www.w3.org/2000/svg"><g fill-rule="evenodd" clip-rule="evenodd"><path d="M4.929 5.429A10 10 0 1119.07 19.57 10 10 0 014.93 5.43zM12 4.5a8 8 0 100 16 8 8 0 000-16z"/><path d="M12 15.5a1 1 0 011 1v.01a1 1 0 11-2 0v-.01a1 1 0 011-1zM11.427 8.558a3 3 0 11.57 5.942 1 1 0 01.006-2 1 1 0 00.457-1.891l-.002-.001a.98.98 0 00-1.195.239 1 1 0 11-1.526-1.292 2.98 2.98 0 011.69-.997z"/></g></svg><svg fill="none" viewBox="0 0 24 24" id="quote" xmlns="http://www.w3.org/2000/svg"><g clip-path="url(#boclip0_1029_60728)" stroke="#000" stroke-width="2" stroke-linecap="round" stroke-linejoin="round"><path d="M10 11H6a1 1 0 01-1-1V7a1 1 0 011-1h3a1 1 0 011 1v6c0 2.667-1.333 4.333-4 5M19 11h-4a1 1 0 01-1-1V7a1 1 0 011-1h3a1 1 0 011 1v6c0 2.667-1.333 4.333-4 5"/></g><defs><clipPath id="boclip0_1029_60728"><path fill="#fff" d="M0 0h24v24H0z"/></clipPath></defs></svg><svg fill="none" viewBox="0 0 20 20" id="radio" xmlns="http://www.w3.org/2000/svg"><path d="M15 1.34A10 10 0 11.005 10.324L0 10l.005-.324A10 10 0 0115 1.34zm-1.293 5.953a1 1 0 00-1.32-.083l-.094.083L9 10.585 7.707 9.293l-.094-.083a1 1 0 00-1.403 1.403l.083.094 2 2 .094.083a1 1 0 001.226 0l.094-.083 4-4 .083-.094a1 1 0 00-.083-1.32z" fill="#1890FF"/></svg><svg fill="none" viewBox="0 0 24 24" id="resize" xmlns="http://www.w3.org/2000/svg"><g clip-path="url(#bqclip0_38_32785)"><path d="M16 4h4v4M14 10l6-6M8 20H4v-4M4 20l6-6M16 20h4v-4M14 14l6 6M8 4H4v4M4 4l6 6"/></g><defs><clipPath id="bqclip0_38_32785"><path fill="#fff" d="M0 0h24v24H0z"/></clipPath></defs></svg><svg fill="none" viewBox="0 0 25 24" id="sale" xmlns="http://www.w3.org/2000/svg"><g opacity=".8" clip-path="url(#brclip0_5001_51149)" stroke="#212121" stroke-width="2" stroke-linecap="round" stroke-linejoin="round"><path d="M9.5 15l6-6"/><path d="M10 10a.5.5 0 100-1 .5.5 0 000 1zM15 15a.5.5 0 100-1 .5.5 0 000 1z" fill="#212121"/><path d="M5.5 7.2A2.2 2.2 0 017.7 5h1a2.2 2.2 0 001.55-.64l.7-.7a2.2 2.2 0 013.12 0l.7.7c.412.41.97.64 1.55.64h1a2.2 2.2 0 012.2 2.2v1c0 .581.23 1.139.64 1.55l.7.7a2.2 2.2 0 010 3.12l-.7.7a2.2 2.2 0 00-.64 1.55v1a2.2 2.2 0 01-2.2 2.2h-1a2.2 2.2 0 00-1.55.64l-.7.7a2.202 2.202 0 01-3.12 0l-.7-.7a2.2 2.2 0 00-1.55-.64h-1a2.2 2.2 0 01-2.2-2.2v-1a2.2 2.2 0 00-.64-1.55l-.7-.7a2.2 2.2 0 010-3.12l.7-.7A2.2 2.2 0 005.5 8.2v-1z"/></g><defs><clipPath id="brclip0_5001_51149"><path fill="#fff" transform="translate(.5)" d="M0 0h24v24H0z"/></clipPath></defs></svg><svg fill="none" viewBox="0 0 24 24" id="sales" xmlns="http://www.w3.org/2000/svg"><g clip-path="url(#bsclip0_5001_39543)" stroke="#000" stroke-width="2" stroke-linecap="round" stroke-linejoin="round"><path d="M9 15l6-6"/><path d="M9.5 10a.5.5 0 100-1 .5.5 0 000 1zM14.5 15a.5.5 0 100-1 .5.5 0 000 1z" fill="#000"/><path d="M3 12a9 9 0 1018.001 0A9 9 0 003 12z"/></g><defs><clipPath id="bsclip0_5001_39543"><path fill="#fff" d="M0 0h24v24H0z"/></clipPath></defs></svg><svg fill="none" viewBox="0 0 24 24" id="search" xmlns="http://www.w3.org/2000/svg"><g clip-path="url(#btclip0_1_32046)"><path d="M3 10a7 7 0 1014 0 7 7 0 00-14 0zM21 21l-6-6"/></g><defs><clipPath id="btclip0_1_32046"><path fill="#fff" d="M0 0h24v24H0z"/></clipPath></defs></svg><svg fill="none" viewBox="0 0 24 24" id="sizes" xmlns="http://www.w3.org/2000/svg"><g clip-path="url(#buclip0_5001_35402)" stroke="#000" stroke-width="2" stroke-linecap="round" stroke-linejoin="round"><path d="M17 3l4 4L7 21l-4-4L17 3zM16 7l-1.5-1.5M13 10l-1.5-1.5M10 13l-1.5-1.5M7 16l-1.5-1.5"/></g><defs><clipPath id="buclip0_5001_35402"><path fill="#fff" d="M0 0h24v24H0z"/></clipPath></defs></svg><svg fill="none" viewBox="0 0 24 24" id="sort" xmlns="http://www.w3.org/2000/svg"><g clip-path="url(#bvclip0_5001_34947)" stroke="#000" stroke-width="2" stroke-linecap="round" stroke-linejoin="round"><path d="M3 9l4-4m0 0l4 4M7 5v14M21 15l-4 4m0 0l-4-4m4 4V5"/></g><defs><clipPath id="bvclip0_5001_34947"><path fill="#fff" d="M0 0h24v24H0z"/></clipPath></defs></svg><svg fill="none" viewBox="0 0 24 24" id="tiktok" xmlns="http://www.w3.org/2000/svg"><g clip-path="url(#bwclip0_5001_49154)"><path d="M21 7.917v4.034A9.949 9.949 0 0116 10v4.5a6.5 6.5 0 11-8-6.326V12.5a2.5 2.5 0 104 2V3h4.083A6.005 6.005 0 0021 7.917z"/></g><defs><clipPath id="bwclip0_5001_49154"><path fill="#fff" d="M0 0h24v24H0z"/></clipPath></defs></svg><svg fill="none" viewBox="0 0 24 24" id="twitter" xmlns="http://www.w3.org/2000/svg"><g clip-path="url(#bxclip0_1165_31557)"><path d="M22 4.009c-1 .49-1.98.689-3 .99-1.121-1.265-2.783-1.335-4.38-.737S11.977 6.322 12 7.999v1c-3.245.083-6.135-1.395-8-4 0 0-4.182 7.433 4 11-1.872 1.247-3.739 2.088-6 2 3.308 1.803 6.913 2.423 10.034 1.517 3.58-1.04 6.522-3.723 7.651-7.742a13.84 13.84 0 00.497-3.753c0-.249 1.51-2.772 1.818-4.013v.001z"/></g><defs><clipPath id="bxclip0_1165_31557"><path fill="#fff" d="M0 0h24v24H0z"/></clipPath></defs></svg><svg fill="none" viewBox="0 0 33 32" id="user" xmlns="http://www.w3.org/2000/svg"><rect x=".921" y=".421" width="31.158" height="31.158" rx="15.579" stroke="#fff" stroke-width=".842"/><g clip-path="url(#byclip0_5001_46384)" stroke="#fff" stroke-width="1.684" stroke-linecap="round" stroke-linejoin="round"><path d="M13.13 11.79a3.368 3.368 0 106.737 0 3.368 3.368 0 00-6.736 0zM11.447 23.578v-1.684a3.368 3.368 0 013.369-3.369h3.368a3.368 3.368 0 013.368 3.369v1.684"/></g><defs><clipPath id="byclip0_5001_46384"><path fill="#fff" transform="translate(6.395 5.895)" d="M0 0h20.21v20.21H0z"/></clipPath></defs></svg><svg fill="none" viewBox="0 0 25 24" id="user2" xmlns="http://www.w3.org/2000/svg"><g clip-path="url(#bzclip0_3340_199349)" stroke="#212121" stroke-width="2.009" stroke-linecap="round" stroke-linejoin="round"><path d="M8.5 7a4 4 0 108 0 4 4 0 00-8 0zM6.5 21v-2a4 4 0 014-4h4a4 4 0 014 4v2"/></g><defs><clipPath id="bzclip0_3340_199349"><path fill="#fff" transform="translate(.5)" d="M0 0h24v24H0z"/></clipPath></defs></svg><svg fill="none" viewBox="0 0 24 24" id="x" xmlns="http://www.w3.org/2000/svg"><g clip-path="url(#caclip0_5001_49140)"><path d="M4 4l11.733 16H20L8.267 4H4zM4 20l6.768-6.768m2.46-2.46L20 4"/></g><defs><clipPath id="caclip0_5001_49140"><path fill="#fff" d="M0 0h24v24H0z"/></clipPath></defs></svg><svg fill="none" viewBox="0 0 24 24" id="youtube" xmlns="http://www.w3.org/2000/svg"><g clip-path="url(#cbclip0_1165_31560)"><path d="M3 9a4 4 0 014-4h10a4 4 0 014 4v6a4 4 0 01-4 4H7a4 4 0 01-4-4V9z"/><path d="M10 9l5 3-5 3V9z"/></g><defs><clipPath id="cbclip0_1165_31560"><path fill="#fff" d="M0 0h24v24H0z"/></clipPath></defs></svg></svg>